<svg id="SvgjsSvg1001" width="288" height="288" xmlns="http://www.w3.org/2000/svg" version="1.1" xmlns:xlink="http://www.w3.org/1999/xlink" xmlns:svgjs="http://svgjs.com/svgjs"><defs id="SvgjsDefs1002"></defs><g id="SvgjsG1008" transform="matrix(1,0,0,1,0,0)"><svg xmlns="http://www.w3.org/2000/svg" viewBox="0 0 150 150" width="288" height="288"><g data-name="Layer 2" fill="#000000" class="color000 svgShape"><g data-name="Layer 1" fill="#000000" class="color000 svgShape"><circle cx="75" cy="75" r="75" fill="#0087cb" class="color0087cb svgShape"></circle><path fill="#ffffff" d="M101,119.7H96.34L75.47,103c-1.59-1.28-2.89-1.65-4.52.29a89.07,89.07,0,0,1-9.08,9.53c-3.85,3.38-5.91,2.56-7.5-2.46-2.37-7.5-4.83-15-7-22.55-.82-2.9-2.28-4.2-4.92-5.25-6.91-2.76-14.64-3.23-20.79-8.16V72.7c1.13-1.61,2.29-3.15,4.17-3.9C45.65,61,65.47,53.14,85.23,45.19,94.17,41.59,103,37.71,111.89,34h4.67l1.55,1.65v5.77c-4.72,19.47-7.58,39.34-11.75,58.93C105,106.85,105.54,114.09,101,119.7Zm-43-11c.42-4.5.88-7.66,1-10.84.16-6.15,3-10.43,7.32-14.34C77.58,73.26,88.6,62.68,99.72,52.21c.79-.74,1.83-1.74,1.12-2.76-1-1.47-2.11.13-2.89.64C82.42,60.31,67,70.62,51.44,80.87c-.9.59-2,.88-1.51,2.33C52.48,91.29,55.06,99.38,58,108.71Z" class="color5cb75c svgShape"></path></g></g></svg></g></svg>