<?xml version="1.0" encoding="utf-8"?>
<!-- Generator: Adobe Illustrator 25.4.1, SVG Export Plug-In . SVG Version: 6.00 Build 0)  -->
<svg version="1.1" id="SvgjsSvg1001" xmlns:svgjs="http://svgjs.com/svgjs"
	 xmlns="http://www.w3.org/2000/svg" xmlns:xlink="http://www.w3.org/1999/xlink" x="0px" y="0px" viewBox="0 0 288 288"
	 style="enable-background:new 0 0 288 288;" xml:space="preserve">
<style type="text/css">
	.st0{fill:#FFFFFF;stroke:#231F20;stroke-width:6.3297;stroke-miterlimit:10.5495;}
	.st1{fill:#17B8EC;stroke:#231F20;stroke-width:3;stroke-miterlimit:10.5495;}
	.st2{fill:#FFC60B;}
	.st3{fill:none;stroke:#231F20;stroke-width:3;stroke-miterlimit:10.5495;}
</style>
<g id="SvgjsG1008" transform="matrix(1,0,0,1,0,0)">
	<g>
		<g>
			<circle class="st0" cx="144" cy="144" r="140.8"/>
			<path class="st1" d="M140.3,24.9c2.6,4.9,5.3,9.8,7.9,14.8c3.4,6.3,6.7,12.8,10.2,19c1.6,2.5,1.6,5.8,0,8.3
				c-19.5,35.6-38.7,71.5-57.7,107.4c-8.4,16-17.1,31.8-25.7,47.7H64.3c-0.4-0.8-0.9-1.6-1.3-2.5c-4.6-9.9-8.7-20-12.9-30.2
				c-0.9-2.6-2.2-5.1-3.8-7.4v-3.5c0.4-0.1,0.5-0.6,0.7-0.9c9.9-17.8,19.5-35.8,29.2-53.7c17.9-32.9,35-66.4,53.4-99.1L140.3,24.9z"
				/>
			<g>
				<path class="st2" d="M89.3,223.2c-1-2.5-0.8-5.3,0.6-7.5c4.8-8.9,9.5-17.8,14.3-26.7c4.1-7.7,8.2-15.4,12.2-23.1
					c0.7-1.4,1.9-2.5,3.3-3.2c14.8-7,29.5-14.1,44.2-21.1c3.6-1.7,5.5-1.1,7.3,2.5c4,7.8,8.4,15.4,12.6,23.1
					c1.4,2.6,2.7,5.1,3.9,7.8c1.5,3.2,1.1,4.6-2,6.3c-4.4,2.5-9.1,4.5-13.6,6.7c-21.6,10.3-43.2,20.6-64.8,30.8
					c-3.1,1.5-6.2,2.7-9.2,4.4L89.3,223.2z"/>
				<path class="st3" d="M89.3,223.2c-1-2.5-0.8-5.3,0.6-7.5c4.8-8.9,9.5-17.8,14.3-26.7c4.1-7.7,8.2-15.4,12.2-23.1
					c0.7-1.4,1.9-2.5,3.3-3.2c14.8-7,29.5-14.1,44.2-21.1c3.6-1.7,5.5-1.1,7.3,2.5c4,7.8,8.4,15.4,12.6,23.1
					c1.4,2.6,2.7,5.1,3.9,7.8c1.5,3.2,1.1,4.6-2,6.3c-4.4,2.5-9.1,4.5-13.6,6.7c-21.6,10.3-43.2,20.6-64.8,30.8
					c-3.1,1.5-6.2,2.7-9.2,4.4L89.3,223.2z"/>
			</g>
			<path class="st1" d="M250.5,179.1c-2.2,4.4-4,9-5.8,13.6c-2.9,7.4-5.6,14.8-8.4,22.1c-1.9,4.9-3,5.4-8.2,5.4
				c-3.2,0.2-6.2-1.7-7.4-4.6c-12.9-24.7-26.1-49.2-39.3-73.7c-0.6-0.9-1-2-1.2-3c-0.5-1.7,0.4-3.4,2.1-3.9c0.2,0,0.3-0.1,0.5-0.1
				c2.2-0.3,4.4-0.4,6.6-0.3c11.9,0,23.8,0,35.7,0c2.4-0.1,4.6,1.2,5.6,3.3c4.9,9.2,10.2,18.9,15.9,29.5c1,2.2,2.4,4.2,4.1,6
				L250.5,179.1z"/>
		</g>
	</g>
</g>
</svg>
