<svg xmlns="http://www.w3.org/2000/svg" viewBox="0 0 125 104.17"><defs><style>.cls-1{fill:#231f20;}</style></defs><g id="Layer_2" data-name="Layer 2"><g id="Layer_1-2" data-name="Layer 1"><path class="cls-1" d="M125,50.93A13.82,13.82,0,0,0,101.58,41c-9.43-6.2-22.18-10.15-36.31-10.65L73,6.07,93.91,11l0,.3a11.37,11.37,0,1,0,.8-4.09L72.13,1.9a1.92,1.92,0,0,0-2.29,1.29L61.22,30.31c-14.78.18-28.17,4.16-38,10.55A13.75,13.75,0,1,0,6.86,62.76a24.62,24.62,0,0,0-.45,4.46c0,20.37,25,37,55.83,37s55.83-16.58,55.83-36.95a24.6,24.6,0,0,0-.39-4.21A13.72,13.72,0,0,0,125,50.93ZM35.29,60.39a8.24,8.24,0,1,1,8.24,8.2A8.23,8.23,0,0,1,35.29,60.39ZM82.48,84.71c-4.15,4.13-10.66,6.14-19.91,6.14l-.07,0-.07,0c-9.25,0-15.77-2-19.91-6.14a1.92,1.92,0,0,1,0-2.73,2,2,0,0,1,2.74,0c3.38,3.37,9,5,17.17,5l.07,0,.07,0c8.17,0,13.79-1.64,17.17-5a1.94,1.94,0,0,1,2.74,0A1.92,1.92,0,0,1,82.48,84.71Zm-1-16.12a8.2,8.2,0,1,1,8.23-8.2A8.22,8.22,0,0,1,81.5,68.59Z"/></g></g></svg>