<svg xmlns="http://www.w3.org/2000/svg" viewBox="0 0 67 114.45"><defs><style>.cls-1{fill:#231f20;fill-rule:evenodd;}</style></defs><g id="Layer_2" data-name="Layer 2"><g id="Layer_1-2" data-name="Layer 1"><path class="cls-1" d="M66.88,107.79c-3.9,3.75-13.26,6.52-20.92,6.65h-.85c-25.18,0-29.5-19.21-29.5-30.57V47.34a.52.52,0,0,0-.52-.53H.65a.52.52,0,0,1-.53-.52L0,30.4l.33-.48c13-5.06,20.27-13.47,22.19-29A.9.9,0,0,1,23.34,0h17.9a.52.52,0,0,1,.52.52v25a.52.52,0,0,0,.52.52H62a.52.52,0,0,1,.53.52V46.3a.53.53,0,0,1-.53.53H42.2a.5.5,0,0,0-.51.52V82.16c.12,7.46,3.71,11.25,10.72,11.25a24.73,24.73,0,0,0,8.75-1.79.51.51,0,0,1,.67.32L67,107.25Z"/></g></g></svg>