<svg xmlns="http://www.w3.org/2000/svg" viewBox="0 0 118 95.89"><g id="Layer_2" data-name="Layer 2"><g id="Layer_1-2" data-name="Layer 1"><path d="M118,11.35a48.11,48.11,0,0,1-13.9,3.81A24.22,24.22,0,0,0,114.74,1.77,48.73,48.73,0,0,1,99.37,7.65,24.22,24.22,0,0,0,58.11,29.72,68.71,68.71,0,0,1,8.22,4.43,24.24,24.24,0,0,0,15.7,36.75a24.08,24.08,0,0,1-11-3A24.25,24.25,0,0,0,24.16,57.77a24.28,24.28,0,0,1-10.93.41A24.21,24.21,0,0,0,35.84,75,48.68,48.68,0,0,1,0,85,68.5,68.5,0,0,0,37.11,95.89c45,0,70.34-38,68.81-72A49.16,49.16,0,0,0,118,11.35Z"/></g></g></svg>