<svg xmlns="http://www.w3.org/2000/svg" viewBox="0 0 212 213.01"><defs><style>.cls-1{fill:#231f20;}</style></defs><g id="Layer_2" data-name="Layer 2"><g id="Layer_1-2" data-name="Layer 1"><path class="cls-1" d="M0,213l15-54.7a105.55,105.55,0,1,1,41,40Zm58.55-33.79c14.88,8.83,29.08,14.12,47.86,14.13a87.77,87.77,0,1,0-87.7-87.8c0,19.75,5.78,34.53,15.5,50l-8.87,32.38Zm101.07-48.49c-.66-1.1-2.42-1.76-5.06-3.08s-15.61-7.71-18-8.59-4.17-1.32-5.94,1.33-6.81,8.58-8.35,10.34-3.08,2-5.71.65-11.14-4.1-21.22-13.09A79.74,79.74,0,0,1,80.64,100c-1.53-2.64-.16-4.07,1.16-5.38s2.63-3.08,4-4.62a17.4,17.4,0,0,0,2.66-4.4A4.85,4.85,0,0,0,88.2,81c-.67-1.32-5.94-14.3-8.13-19.58S75.74,57,74.13,56.89l-5.06-.09a9.67,9.67,0,0,0-7,3.3c-2.41,2.65-9.23,9-9.23,22s9.45,25.52,10.77,27.28,18.59,28.4,45.05,39.82a153,153,0,0,0,15,5.56,36.28,36.28,0,0,0,16.62,1c5.07-.76,15.6-6.38,17.8-12.54S160.28,131.83,159.62,130.73Z"/></g></g></svg>