<svg id="SvgjsSvg1001" width="288" height="288" xmlns="http://www.w3.org/2000/svg" version="1.1" xmlns:xlink="http://www.w3.org/1999/xlink" xmlns:svgjs="http://svgjs.com/svgjs"><defs id="SvgjsDefs1002"></defs><g id="SvgjsG1008" transform="matrix(1,0,0,1,0,0)"><svg xmlns="http://www.w3.org/2000/svg" viewBox="0 0 466.01 465.94" width="288" height="288"><g data-name="Layer 2" fill="#000000" class="color000 svgShape"><g data-name="Layer 1" fill="#000000" class="color000 svgShape"><path fill="#5cb75c" d="M255.45,465.94h-45.9c-.25-.73-.83-.9-1.53-1a221.32,221.32,0,0,1-44-8.88,232.63,232.63,0,0,1-69.91-35.33,246.66,246.66,0,0,1-27.57-23.82,195.48,195.48,0,0,1-17.14-19.65,234,234,0,0,1-32.89-57A222.34,222.34,0,0,1,2.75,270.51C2,265.15,2.09,259.56,0,254.39v-43.9c1-.34.89-1.22,1-2,1.37-10.84,2.8-21.69,5.72-32.23,5.47-19.84,12.56-39,22.83-57A256.93,256.93,0,0,1,64,72.27C71.57,64,80.25,56.92,89.07,50A235,235,0,0,1,167.7,9.35C181.33,5.24,195.27,2,209.36,1.29c11.43-.6,22.88-2.12,34.57-.71,8.91,1.07,18.11,1,27,2.53a231.13,231.13,0,0,1,65.67,21.51,234.07,234.07,0,0,1,71.8,55.76,246.52,246.52,0,0,1,32.44,47.72,218.24,218.24,0,0,1,16.78,43.71A239.52,239.52,0,0,1,466,229a210.24,210.24,0,0,1-.81,21.28,224,224,0,0,1-4.88,33.45c-4.87,21.19-12.07,41.49-22.67,60.61-9.49,17.11-20.43,33.18-33.77,47.4a237,237,0,0,1-131.28,71.35C266.86,464.08,261,463.92,255.45,465.94ZM195.12,361.17c4.51.36,7.81-1.85,10.83-4.87q86.19-86.24,172.42-172.44c6.66-6.66,6.61-14.94-.1-21.67s-13.52-12.85-19.64-19.84c-6.42-7.34-17-6.87-23.68-.11C289.8,187.82,244.3,233.05,199,278.52c-3.1,3.12-4.81,3.11-7.89,0-20.09-20.35-40.43-40.43-60.55-60.75-7-7.1-16-8.4-23.75,0-6.64,7.21-13.65,14.1-20.8,20.8-4.94,4.63-4.87,14.75-.17,19.43q49.68,49.41,99.14,99C187.78,359.83,191.05,361.5,195.12,361.17Z" class="color5cb75c svgShape"></path><path fill="#ffffff" d="M195.12,361.17c-4.07.33-7.34-1.34-10.12-4.12q-49.56-49.53-99.14-99c-4.7-4.68-4.77-14.8.17-19.43,7.15-6.7,14.16-13.59,20.8-20.8,7.78-8.43,16.72-7.13,23.75,0,20.12,20.32,40.46,40.4,60.55,60.75,3.08,3.12,4.79,3.13,7.89,0C244.3,233.05,289.8,187.82,335,142.24c6.69-6.76,17.26-7.23,23.68.11,6.12,7,13.07,13.24,19.64,19.84s6.76,15,.1,21.67Q292.16,270.08,206,356.3C202.93,359.32,199.63,361.53,195.12,361.17Z" class="color3c00fe svgShape"></path></g></g></svg></g></svg>